<svg width="441px" height="277px" viewBox="0 0 441 277" version="1.1" xmlns="http://www.w3.org/2000/svg"><g id="FLUXO_PRODUTO" stroke="none" stroke-width="1" fill="none" fill-rule="evenodd"><g id="CARRINHO-VAZIO" transform="translate(-831.000000, -187.000000)" ins-init-condition="#I0NBUlJJTkhPLVZBWklP"><g id="Group-12" transform="translate(831.000000, 187.000000)"><g id="Group-9" transform="translate(146.000000, 16.000000)"><g id="Group-8"><circle id="Oval" fill="#E5E5E5" cx="164.5" cy="130" r="116.5"></circle><circle id="Oval" stroke="#DDDDDD" stroke-width="4" cx="164.5" cy="130" r="116.5"></circle><path d="M293,126.5 C293,56.3598368 235.830614,-0.5 165.308602,-0.5 C126.87613,-0.5 92.4093041,16.3870141 69,43.1075657" id="Oval" stroke="#DDDDDD" stroke-width="4"></path><path d="M263.933668,278.905936 C263.95161,208.541672 206.898453,151.514713 136.501871,151.532654" id="Oval" stroke="#DDDDDD" stroke-width="4" transform="translate(200.217770, 215.219295) rotate(114.000000) translate(-200.217770, -215.219295) "></path><path d="M88.4736408,192.400877 C72.9659991,161.744067 45.4438688,138.195054 12.1048755,127.952777" id="Oval" stroke="#DDDDDD" stroke-width="4" transform="translate(50.289258, 160.176827) rotate(-144.000000) translate(-50.289258, -160.176827) "></path><circle id="Oval" fill="#FFFFFF" cx="165" cy="131.5" r="105"></circle></g><path d="M151.865895,197.794044 C159.01189,197.794044 164.825274,192.279119 164.825274,185.5 C164.825274,179.061829 159.580776,173.767408 152.932374,173.25089 L152.497286,173.25089 L152.497286,173.221243 C152.287799,173.211515 152.077824,173.205956 151.865895,173.205956 C144.719901,173.205956 138.906516,178.720881 138.906516,185.5 C138.906516,192.279119 144.719901,197.794044 151.865895,197.794044 Z M191.174726,185.5 C191.174726,192.279119 196.98811,197.794044 204.134105,197.794044 C211.280099,197.794044 217.093484,192.279119 217.093484,185.5 C217.093484,178.828817 211.462241,173.385231 204.472018,173.213831 L204.472018,173.25089 L203.067626,173.25089 C196.419224,173.767408 191.174726,179.061829 191.174726,185.5 Z M151.865895,169.5 C152.269731,169.5 152.669173,169.518067 153.066172,169.544935 L202.933828,169.544935 C203.330827,169.518067 203.730269,169.5 204.134105,169.5 C213.434055,169.5 221,176.677509 221,185.5 C221,194.322491 213.434055,201.5 204.134105,201.5 C194.834155,201.5 187.26821,194.322491 187.26821,185.5 C187.26821,180.588219 189.615537,176.188323 193.299382,173.25089 L162.700618,173.25089 C166.384463,176.188323 168.73179,180.588219 168.73179,185.5 C168.73179,194.322491 161.165845,201.5 151.865895,201.5 C142.565945,201.5 135,194.322491 135,185.5 C135,176.677509 142.565945,169.5 151.865895,169.5 Z M156.955781,128.458911 L158.775834,154.638131 L189.966055,154.638131 L191.786108,128.458911 L156.955781,128.458911 Z M156.668731,124.33005 L192.073158,124.33005 L193.721319,100.623287 L154.885011,98.673431 L156.668731,124.33005 Z M221.104045,128.458911 L195.786832,128.458911 L193.966779,154.638131 L218.112438,154.638131 C219.258823,154.638131 221.104045,152.760297 221.104045,151.59353 L221.104045,128.458911 Z M221.104045,124.33005 L221.104045,103.79083 C221.104045,102.690197 219.753122,101.867136 218.545376,101.867136 L218.495703,101.867136 L197.708127,100.823453 L196.073882,124.33005 L221.104045,124.33005 Z M128.760058,128.458911 L138.045692,154.638131 L154.77511,154.638131 L152.955057,128.458911 L128.760058,128.458911 Z M127.405528,124.64005 L127.405528,124.33005 L152.668007,124.33005 L150.870273,98.4718629 L117.530079,96.7979501 L127.405528,124.64005 Z M90.9479775,74.5 L107.309041,74.5 C108.096998,74.5 108.807523,74.9706653 109.108972,75.6923521 L116.292139,92.9037377 L117.035293,92.9080823 L218.599433,98.0057497 C221.700613,98.0323001 225,100.350387 225,103.79083 L225,151.59353 C225,154.88529 221.395268,158.5 218.112438,158.5 L135.285407,158.5 L112.009998,92.8786356 L112.065028,92.8791183 L106.006818,78.3618692 L90.9479775,78.3618692 C89.8722069,78.3618692 89,77.4972932 89,76.4309346 C89,75.364576 89.8722069,74.5 90.9479775,74.5 Z" id="Combined-Shape" fill="#E5E5E5"></path></g><g id="Group-11"><g id="Group-3-Copy-3"><g id="Group-2"><g id="Group-8" transform="translate(57.143779, 77.641307) rotate(-90.000000) translate(-57.143779, -77.641307) translate(-20.356221, 21.141307)" fill="#DDDDDD"><path d="M149.507973,110.964331 C146.524312,109.822417 143.584306,108.493121 140.770228,107.010074 L142.393864,104.205739 C145.08705,105.624723 147.901128,106.897965 150.757181,107.991832 L149.507973,110.964331 Z" id="Fill-1" transform="translate(145.763705, 107.585035) rotate(-90.000000) translate(-145.763705, -107.585035) "></path><path d="M62.7166765,102.633474 C59.0654537,102.633474 55.3946708,102.368718 51.8037583,101.849013 L52.2699412,98.6131116 C57.3115627,99.3452752 62.5667155,99.5397561 67.5806268,99.2047259 C107.832098,96.5473645 138.419239,61.5555046 135.768843,21.2031617 C134.975028,9.06853181 131.128204,-2.77682809 124.645653,-13.0499976 L127.402,-14.7970574 C134.173063,-4.06465143 138.192668,8.31021959 139.022343,20.9890692 C141.79173,63.1391351 109.838641,99.6901111 67.7957882,102.466776 C66.1282878,102.577908 64.4200371,102.633474 62.7166765,102.633474" id="Fill-3" transform="translate(95.496679, 43.918208) rotate(-90.000000) translate(-95.496679, -43.918208) "></path><path d="M46.7911395,75.2846604 C33.6957711,63.8225862 17.0879187,57.5101638 0.0238154986,57.5101638 C-1.60218466,57.5101638 -3.22818482,57.5653745 -4.80888349,57.6741228 C-12.0118215,58.1643268 -19.043261,59.7269567 -25.7122885,62.3218592 L-26.8529155,59.1899073 C-19.8861924,56.4795642 -12.5408783,54.8466662 -5.02082978,54.3347125 C-3.37217887,54.2226181 -1.67337273,54.1640613 0.0238154986,54.1640613 C17.8515725,54.1640613 35.2036637,60.7575563 48.88148,72.7315842 L46.7911395,75.2846604 Z" id="Fill-5" transform="translate(11.014282, 64.724361) rotate(-90.000000) translate(-11.014282, -64.724361) "></path></g><path d="M79.6775933,140.962081 C45.0515175,143.244427 15.1340017,116.977054 12.855456,82.2932242 C10.5769104,47.6093941 36.8005438,17.6419775 71.4266196,15.3596314 C106.051067,13.0772853 135.970211,39.3430269 138.248757,74.0284884 C140.527302,108.712319 114.305298,138.679735 79.6775933,140.962081" id="Fill-7" fill="#E5E5E5" transform="translate(75.552110, 78.160852) rotate(-90.000000) translate(-75.552110, -78.160852) "></path><path d="M136.51064,110.47904 C112.456772,110.47904 90.2727461,96.823622 79.1693319,74.8223964 L82.066937,73.3067859 C93.2306162,95.4224285 116.186685,108.658318 140.554909,107.026632 C149.200489,106.447914 157.437245,104.088271 165.037147,100.012374 L166.555173,102.94576 C158.548075,107.238884 149.873177,109.72621 140.768279,110.336434 C139.344723,110.430952 137.922795,110.47904 136.51064,110.47904" id="Fill-9" fill="#DDDDDD" transform="translate(122.862252, 91.892913) rotate(-90.000000) translate(-122.862252, -91.892913) "></path><path d="M71.3436045,72.3969654 L68.085648,72.3594967 C68.1051957,70.7711514 68.0595843,69.1616281 67.9553297,67.5716536 C66.1145843,39.5988554 45.6073769,16.4986121 18.0841602,11.3947289 L18.6771083,8.19034399 C47.6680344,13.5662821 69.2682862,37.896475 71.2067703,67.3582452 C71.3159119,69.0296732 71.3631522,70.7255373 71.3436045,72.3969654" id="Fill-11" fill="#DDDDDD" transform="translate(44.716036, 40.293655) rotate(-90.000000) translate(-44.716036, -40.293655) "></path><path d="M7.74766398,133.031441 L4.62986605,132.163065 C11.8793931,105.763124 34.9863509,86.8168808 62.1296279,85.0182178 C63.4944731,84.9286105 64.8657867,84.8797338 66.2079922,84.8764753 L66.2160778,88.1349228 C64.9417911,88.1381812 63.6400134,88.1837995 62.34147,88.2701484 C36.5678894,89.9775748 14.6301059,107.965834 7.74766398,133.031441" id="Fill-13" fill="#DDDDDD" transform="translate(35.422972, 108.953958) rotate(-90.000000) translate(-35.422972, -108.953958) "></path><path d="M79.2473785,128.314213 C65.9442394,129.175863 53.0873613,124.830224 43.0562602,116.052781 C33.0381887,107.286718 27.0364664,95.1342107 26.1488304,81.8583078 C24.3409846,54.4285951 45.2224178,30.6470733 72.7016738,28.8424869 C86.0162137,27.9678315 98.8616909,32.3264766 108.878134,41.0909136 C118.912492,49.8699824 124.923987,62.0078578 125.800222,75.2983925 C127.608068,102.728105 106.725006,126.509627 79.2473785,128.314213" id="Fill-17" fill="#FFFFFF" transform="translate(75.974522, 78.576976) rotate(-90.000000) translate(-75.974522, -78.576976) "></path></g></g><path d="M72.2779995,109.308131 C67.2525285,105.758996 54.078409,96.1368494 49.3528844,89.5813163 C44.6085616,82.9999741 42.4402719,76.4161317 42.7238802,69.4540956 C42.9347743,64.2771155 45.0201561,59.4119632 48.595614,55.7548034 C52.1916857,52.0767337 56.9998884,49.9268937 62.134739,49.7012048 C65.1953304,49.5657203 68.0787676,50.1302696 70.760576,51.3839063 L68.5174825,74.6401814 L78.9408939,86.9557803 L72.2779995,109.308131 Z M85.2346167,50.0968027 C89.1400004,49.2696723 93.2015075,49.6764031 96.9383702,51.3426198 C102.785866,53.9492923 107.137396,59.3715074 108.578543,65.8471646 C109.926588,71.9053087 108.913346,78.0607286 105.480371,84.6652534 C101.984876,91.3902366 96.6400378,97.4024702 89.1402746,103.045829 C86.9561895,104.689312 84.6597653,106.199157 82.3859583,107.650334 L88.3776224,78.4968153 L88.2630708,78.5936651 L88.3776224,78.4799741 L78.4789058,71.0497933 L85.2346167,50.0968027 Z" id="Combined-Shape" fill="#DDDDDD" transform="translate(75.926842, 79.494830) rotate(-6.000000) translate(-75.926842, -79.494830) "></path></g></g></g></g></svg>